<?xml version="1.0" encoding="UTF-8" standalone="no"?>
<svg width="25px" height="24px" viewBox="0 0 25 24" version="1.1" xmlns="http://www.w3.org/2000/svg" xmlns:xlink="http://www.w3.org/1999/xlink" xmlns:sketch="http://www.bohemiancoding.com/sketch/ns">
    <!-- Generator: Sketch 3.3.1 (12002) - http://www.bohemiancoding.com/sketch -->
    <title>logo_mobile</title>
    <desc>Created with Sketch.</desc>
    <defs></defs>
    <g id="Home" stroke="none" stroke-width="1" fill="none" fill-rule="evenodd" sketch:type="MSPage">
        <g id="Mobile-Portrait" sketch:type="MSArtboardGroup" transform="translate(-147.000000, -8.000000)" fill="#262626">
            <g id="header_mobile" sketch:type="MSLayerGroup" transform="translate(11.000000, 7.000000)">
                <g id="logo_mobile" transform="translate(136.000000, 1.000000)" sketch:type="MSShapeGroup">
                    <path d="M19.7040154,19.2053746 L18.7371058,17.0714828 C18.5967005,16.7615844 18.2885359,16.5625623 17.948949,16.5625623 L7.45793666,16.5625623 C7.14025016,16.5625623 6.84801321,16.7370319 6.69678751,17.0170857 L5.51450898,19.2053746 L1.03080119,19.2053746 C0.562581501,19.2053746 0.179193625,19.5785194 0.165516659,20.0475314 L0.165430095,20.051262 L0.165430095,22.6355997 C0.165430095,23.1147624 0.552972999,23.5031765 1.03097432,23.5031765 L4.64567536,23.5031765 C4.96336186,23.5031765 5.25559881,23.3287936 5.40691108,23.0487398 L6.5458215,20.9405282 L18.5887367,20.9405282 L19.5193764,22.9943427 C19.6596951,23.3042412 19.9679462,23.5031765 20.3075332,23.5031765 L23.8511659,23.5031765 C24.3293404,23.5031765 24.7168833,23.1147624 24.7168833,22.6355997 L24.7168833,20.0729514 C24.7168833,19.5937888 24.3293404,19.2053746 23.8511659,19.2053746 L19.7040154,19.2053746 L19.7040154,19.2053746 Z M4.1300191,21.7680229 L1.94066571,21.7680229 L1.93443317,20.9405282 L4.57703084,20.9405282 L4.1300191,21.7680229 L4.1300191,21.7680229 Z M7.48321308,19.2053746 L7.97367949,18.2977158 L17.3913962,18.2977158 L17.8025708,19.2053746 L7.48321308,19.2053746 L7.48321308,19.2053746 Z M22.9833711,21.7680229 L20.865086,21.7680229 L20.4901813,20.9405282 L22.9922005,20.9405282 L22.9833711,21.7680229 Z M13.7101281,0.933600323 L13.7114266,4.61360076 L11.180149,4.61360076 C11.180755,3.87052124 11.1820534,2.03195253 11.1828325,0.933426808 C11.1832653,0.454003878 10.7955493,0.065676511 10.3172883,0.065676511 L1.05131664,0.065676511 C0.573228759,0.065676511 0.185599293,0.454090636 0.185599293,0.933253293 L0.185685856,17.4315272 C0.185685856,17.9106898 0.573228759,18.2991039 1.05131664,18.2991039 C1.52940453,18.2991039 1.91694743,17.9106898 1.91694743,17.4315272 L1.91694743,1.66297212 L9.45122468,1.66297212 L9.44888747,4.61360076 L8.33525347,4.61360076 C8.10828507,4.35298069 7.7633312,4.19829175 7.38314616,4.23655189 C6.86852866,4.28834622 6.44887085,4.70382874 6.3922586,5.21916935 C6.31850686,5.89154136 6.84178067,6.46041145 7.49766912,6.46041145 C7.83543825,6.46041145 8.13754339,6.30893255 8.34148601,6.07069596 L9.44767559,6.07069596 L9.44533839,8.99538405 L8.37160996,8.99538405 C8.13650464,8.69572303 7.75233769,8.5190844 7.33034268,8.58094262 C6.83797189,8.65303825 6.44705303,9.06071258 6.39234516,9.5563592 C6.31807404,10.2289915 6.84152098,10.7982954 7.49766912,10.7982954 C7.81423029,10.7982954 8.09919595,10.6652091 8.30166699,10.4524793 L9.4441265,10.4524793 L9.44213555,12.9335753 L5.4851641,12.9335753 C5.00716278,12.9335753 4.61961987,13.3219895 4.61961987,13.8011521 C4.61961987,14.2803148 5.00716278,14.6687289 5.4851641,14.6687289 L10.3071604,14.6687289 C10.784902,14.6687289 11.1723584,14.2807486 11.1727912,13.8018462 C11.1727912,13.8018462 11.1739165,12.3888239 11.1754746,10.4524793 L13.7138504,10.4524793 L13.7153219,13.8014991 C13.7154951,14.280575 14.1029514,14.6687289 14.5808662,14.6687289 L19.4076234,14.6687289 C19.8856247,14.6687289 20.2731677,14.2803148 20.2731677,13.8011521 C20.2731677,13.3219895 19.8856247,12.9335753 19.4076234,12.9335753 L15.4462373,12.9335753 L15.4451985,10.4524793 L17.0811541,10.4524793 C17.3117582,10.6946199 17.6490079,10.8336057 18.0181995,10.7905739 C18.525286,10.7314052 18.9349025,10.3183519 18.9906491,9.80977838 C19.0643143,9.13749313 18.5410404,8.56862303 17.8852386,8.56862303 C17.5302434,8.56862303 17.2148941,8.73589184 17.0112977,8.99538405 L15.4445926,8.99538405 L15.4433807,6.07069596 L17.0413351,6.07069596 C17.2519431,6.31665398 17.5670327,6.47012831 17.918046,6.45997767 C18.4942964,6.44332019 18.9733365,5.96910272 18.9966219,5.39181713 C19.0223312,4.75510253 18.5148984,4.23073912 17.8852386,4.23073912 C17.5507588,4.23073912 17.2515968,4.37944178 17.0476542,4.61360076 L15.4426882,4.61360076 L15.4414763,1.66297212 L22.9652794,1.66297212 L22.9652794,17.4329153 C22.9652794,17.9120779 23.3528223,18.3004921 23.8309102,18.3004921 C24.3089981,18.3004921 24.696541,17.9120779 24.696541,17.4329153 L24.696541,0.933253293 C24.696541,0.454090636 24.3089981,0.065676511 23.8309102,0.065676511 L14.5757589,0.065676511 C14.0974979,0.065676511 13.709955,0.454264152 13.7101281,0.933600323 Z M11.1766,8.99538405 C11.177379,8.05571164 11.1781581,7.05565588 11.1789372,6.07069596 L13.7120325,6.07069596 L13.7132444,8.99538405 L11.1766,8.99538405 L11.1766,8.99538405 Z" id="Fill-1"></path>
                </g>
            </g>
        </g>
    </g>
</svg>