<?xml version="1.0" encoding="UTF-8" standalone="no"?>
<svg width="150px" height="30px" viewBox="0 0 150 30" version="1.1" xmlns="http://www.w3.org/2000/svg" xmlns:xlink="http://www.w3.org/1999/xlink" xmlns:sketch="http://www.bohemiancoding.com/sketch/ns">
    <!-- Generator: Sketch 3.3.1 (12002) - http://www.bohemiancoding.com/sketch -->
    <title>logo_home_tablet_mobile_menu</title>
    <desc>Created with Sketch.</desc>
    <defs></defs>
    <g id="Home" stroke="none" stroke-width="1" fill="none" fill-rule="evenodd" sketch:type="MSPage">
        <g id="Tablet-Portrait-Copy" sketch:type="MSArtboardGroup" transform="translate(-86.000000, -18.000000)" fill="#FFFFFF">
            <g id="logo_home_tablet_mobile_menu" sketch:type="MSLayerGroup" transform="translate(86.000000, 18.000000)">
                <path d="M24.7427106,24.2090553 L23.5271364,21.5233533 C23.3507073,21.1334431 22.9621121,20.8825142 22.5337901,20.881821 L9.2967475,20.8603326 C8.89583527,20.8596394 8.52684336,21.0785091 8.33532147,21.4302948 L6.83905668,24.1797687 L1.1817012,24.1705841 C0.590828403,24.1695444 0.106472311,24.6379566 0.0882569136,25.2278475 L0.0880834336,25.2325264 L0.0827055544,28.4824718 C0.0818381545,29.0851865 0.570010806,29.5743939 1.17320068,29.5754336 L5.73398924,29.5828852 C6.13490146,29.5834051 6.50389337,29.3647088 6.69541526,29.0127498 L8.1366869,26.3639594 L23.3319714,26.3887403 L24.5019204,28.9735855 C24.678523,29.3634957 25.0669447,29.6142514 25.4952667,29.6151178 L29.9665396,29.6223962 C30.569903,29.6232626 31.059637,29.1356148 31.0606778,28.5330735 L31.0658822,25.3103352 C31.0669231,24.7077938 30.578577,24.2185864 29.9753871,24.2175467 L24.7427106,24.2090553 L24.7427106,24.2090553 Z M5.08690893,27.3997343 L2.3244138,27.3952287 L2.318342,26.3544282 L5.65262713,26.3599736 L5.08690893,27.3997343 L5.08690893,27.3997343 Z M9.32311645,24.1839277 L9.94382781,23.0434835 L21.8266857,23.0627191 L22.343656,24.2050695 L9.32311645,24.1839277 L9.32311645,24.1839277 Z M28.8751771,27.4383788 L26.2023711,27.4340464 L25.7311995,26.3927261 L28.8880146,26.3977516 L28.8751771,27.4383788 Z M17.2174962,1.21855948 L17.2115979,5.84636114 L14.0176581,5.84116233 C14.0199133,4.90676404 14.0254647,2.59468279 14.0287608,1.21318738 C14.0301486,0.610299461 13.5418025,0.121092044 12.9382657,0.120225577 L1.24692967,0.101163297 C0.643739795,0.100123536 0.153832344,0.587771312 0.152964944,1.19031265 L0.119136349,21.9380446 C0.118095469,22.5405859 0.606268121,23.0299666 1.209458,23.0310064 C1.81264787,23.0318729 2.30255532,22.5442251 2.3035962,21.9416837 L2.33586348,2.11171394 L11.8422192,2.12713705 L11.8331982,5.83769647 L10.4281839,5.83527036 C10.1422889,5.50722585 9.7073746,5.31192413 9.22752899,5.35923324 C8.57819344,5.42335182 8.04769167,5.94513841 7.97535052,6.59290933 C7.88080394,7.43840809 8.53985436,8.15480322 9.36752733,8.15618957 C9.79376763,8.15688274 10.1752501,7.96712641 10.4330413,7.66784862 L11.8288612,7.67010144 L11.8198403,11.3480817 L10.4651351,11.3458289 C10.1690048,10.968569 9.68464872,10.7457136 9.1520652,10.8224826 C8.53065992,10.9122486 8.03658895,11.4239842 7.96650304,12.0473208 C7.87143602,12.8929928 8.5308334,13.6100811 9.35850637,13.6114675 C9.75803075,13.6119873 10.1178282,13.445279 10.3738847,13.1782338 L11.8153298,13.1804866 L11.8076967,16.3006353 L6.81494297,16.2924905 C6.21175309,16.2914507 5.72201912,16.7792718 5.72097824,17.3818131 C5.71993736,17.9843545 6.20828349,18.4735619 6.81147337,18.4746016 L12.8955896,18.4844794 C13.4984325,18.4855191 13.987993,17.9983912 13.9895543,17.3960232 C13.9895543,17.3960232 13.9937178,15.6192454 13.9997896,13.1841258 L17.2025769,13.1893246 L17.197546,17.4008754 C17.1966786,18.0034167 17.6848513,18.4922776 18.2878677,18.4933173 L24.3780557,18.5031951 C24.9812456,18.5042348 25.471153,18.016587 25.4720204,17.4140457 C25.4730613,16.8113311 24.9847152,16.3221237 24.3815253,16.3212572 L19.3833937,16.3129391 L19.3870368,13.1927905 L21.451275,13.1962564 C21.7416805,13.5010795 22.1670534,13.6766258 22.6328471,13.6232514 C23.2728148,13.5499483 23.790479,13.031281 23.8619528,12.3918281 C23.9563259,11.546676 23.2972754,10.8301075 22.469776,10.8288945 C22.0218507,10.828028 21.6235406,11.0377131 21.3660964,11.3636781 L19.389292,11.3603855 L19.3938025,7.68240527 L21.4101603,7.68569785 C21.6752377,7.99554654 22.0725068,8.18911533 22.5155747,8.17698478 C23.2424558,8.15722933 23.8479009,7.56196632 23.8786068,6.83604005 C23.912262,6.035251 23.2729882,5.37482965 22.4786234,5.3736166 C22.0567201,5.37292342 21.6788808,5.55921389 21.4210895,5.85329288 L19.3958843,5.8500003 L19.4003948,2.13944089 L28.8937395,2.15486401 L28.8612987,21.9865667 C28.8602578,22.5892814 29.3484305,23.0784888 29.9517938,23.0795286 C30.5549837,23.080395 31.0447177,22.5927472 31.0457586,21.9902059 L31.0795871,1.24074104 C31.080628,0.638199707 30.5924554,0.14899229 29.9892655,0.147952529 L18.3114609,0.128890249 C17.7080976,0.127850489 17.2181901,0.615844852 17.2174962,1.21855948 Z M14.0043001,11.3515475 C14.0070758,10.1700328 14.0101984,8.91226891 14.0131476,7.6735673 L17.2093427,7.6789394 L17.2048322,11.3569196 L14.0043001,11.3515475 Z M40.3991049,7.71325151 L37.8368057,7.70909246 L37.8399283,5.8103161 L45.3687858,5.82244664 L45.3654897,7.721223 L42.8123849,7.71723725 L42.789659,21.7160557 L40.376379,21.7122432 L40.3991049,7.71325151 Z M46.8084961,5.82487275 L49.221776,5.82903179 L49.2110203,12.4840203 L52.0715316,12.4885259 L52.0824608,5.83353742 L54.4957408,5.83734988 L54.4697188,21.7351179 L52.0564388,21.7311322 L52.068409,14.3873023 L49.2077242,14.3827966 L49.1959275,21.7266266 L46.7826476,21.7224675 L46.8084961,5.82487275 Z M57.0441616,5.84168221 L62.9423073,5.85121335 L62.9391847,7.74998972 L59.4543189,7.74427103 L59.4466858,12.5006564 L62.139442,12.5049888 L62.1363193,14.4037651 L59.4433897,14.3994328 L59.4345422,19.8443131 L63.0125667,19.8503784 L63.0096175,21.7491547 L57.0183131,21.739277 L57.0441616,5.84168221 Z M68.4773594,5.86022461 L70.9187431,5.86421036 C71.2788875,5.86473024 71.6515225,5.87807384 72.0366481,5.90320139 C72.4217736,5.92884882 72.7975312,5.98222321 73.1639209,6.06332454 C73.5301372,6.14477246 73.877791,6.26469153 74.2068826,6.42325504 C74.5358006,6.58216514 74.8229099,6.79531609 75.0676902,7.0623613 C75.3128174,7.32975309 75.5079824,7.660397 75.6533586,8.05463961 C75.7985613,8.44905551 75.870729,8.92214663 75.8698616,9.47443287 L75.8686472,10.2469751 C75.8679533,10.6689446 75.8067149,11.0567754 75.6849319,11.4101207 C75.563149,11.7636394 75.40268,12.075221 75.203525,12.3446923 C75.0041965,12.6145102 74.7772847,12.8375389 74.5222691,13.0136051 C74.2670801,13.1903644 74.0059927,13.309417 73.7390071,13.3709362 L73.7390071,13.4454523 C74.5273001,13.5894592 75.1218159,13.9641196 75.5213403,14.5699536 C75.9212117,15.1754409 76.1201932,15.9500626 76.1186319,16.8931256 L76.117244,17.7029259 C76.1163766,18.2799931 76.0518421,18.7809845 75.9236404,19.2059 C75.7957856,19.6306423 75.6165808,19.9933455 75.3863729,20.2938363 C75.1559915,20.5946737 74.8820666,20.8409237 74.5651187,21.0325863 C74.2479973,21.2244221 73.8996495,21.374321 73.5207692,21.4822828 C73.141542,21.5902446 72.7376806,21.6638943 72.3090116,21.7035785 C71.8805161,21.743436 71.4393565,21.7628449 70.9858798,21.7619784 L68.4515109,21.7578194 L68.4773594,5.86022461 Z M71.5104833,20.0874438 C71.8333295,20.088137 72.1270311,20.0463732 72.3912411,19.9633657 C72.6554511,19.8798382 72.8821895,19.7498682 73.0719766,19.5734554 C73.2617636,19.3968694 73.4080073,19.1724544 73.5110544,18.8993439 C73.613928,18.62658 73.6657985,18.3039076 73.6663189,17.9315 L73.6682272,16.6936648 C73.6689211,16.3212572 73.6321434,15.9907866 73.5582409,15.702253 C73.484165,15.4133728 73.3618616,15.1712818 73.1911573,14.9758068 C73.0208,14.7798119 72.7989191,14.6306063 72.5256881,14.5278432 C72.2524571,14.4247336 71.9171204,14.3730922 71.5196777,14.372399 L70.8302683,14.3713593 L70.8209004,20.086404 L71.5104833,20.0874438 L71.5104833,20.0874438 Z M71.2988377,12.6687511 C71.6218574,12.669271 71.9171204,12.6309731 72.1842795,12.5540308 C72.4514387,12.4767419 72.6799118,12.3561297 72.8698724,12.1918475 C73.059486,12.0279119 73.2057296,11.8142411 73.3086032,11.5506617 C73.4118238,11.2870824 73.4635209,10.9690889 73.4640413,10.5966813 L73.4649087,9.94509788 C73.4656026,9.57286355 73.4289983,9.24395257 73.3549224,8.95836496 C73.2808464,8.67295065 73.1585431,8.4306864 72.9880122,8.23174552 C72.8174814,8.03297793 72.5940392,7.88221262 72.3178591,7.77910302 C72.0415055,7.67651329 71.7046074,7.62469855 71.3071648,7.62400538 L70.8411975,7.6233122 L70.833044,12.6680579 L71.2988377,12.6687511 Z M78.0423513,5.87582102 L80.4556313,5.87980677 L80.4329054,19.8786252 L83.7219123,19.8839973 L83.7189631,21.7827736 L78.0165028,21.7734158 L78.0423513,5.87582102 Z M86.8339695,5.89020438 L89.61069,5.89471001 L92.5291437,21.797157 L90.0879334,21.7931713 L89.6545805,18.9442269 L86.747403,18.939548 L86.3235914,21.787106 L83.8730133,21.7829469 L86.8339695,5.89020438 Z M89.3778799,17.1288047 L88.2728125,9.2061746 L88.1702858,9.20600131 L87.0298284,17.1249922 L89.3778799,17.1288047 Z M97.30418,21.9446297 C97.0557567,21.9441099 96.7872097,21.9236612 96.4983655,21.882764 C96.2096948,21.8418667 95.9208507,21.7562597 95.6323535,21.6254232 C95.3435093,21.4945866 95.0675027,21.3095092 94.8038131,21.070191 C94.540297,20.8308727 94.3078338,20.5154786 94.1067705,20.1243553 C93.9053603,19.7330587 93.7445444,19.2504364 93.6246697,18.6761419 C93.5041011,18.1020207 93.444771,17.4180314 93.4459853,16.623481 L93.4553532,10.9923102 C93.4565676,10.1918678 93.5197143,9.50770521 93.6449669,8.94034244 C93.7700459,8.37263309 93.9355458,7.89503634 94.1411196,7.50772547 C94.3466934,7.12024131 94.58332,6.81177896 94.8508262,6.58268502 C95.1181588,6.35376437 95.3948594,6.17856469 95.6809278,6.05829903 C95.9668228,5.93751349 96.2511565,5.85883827 96.5341024,5.82210005 C96.8167012,5.78553514 97.079003,5.76716603 97.3213545,5.76768591 C97.9549034,5.76872567 98.4843643,5.8579718 98.9095637,6.0354243 C99.3347631,6.21305008 99.6761717,6.45566092 99.9334425,6.7630835 C100.190713,7.07085268 100.373388,7.42939683 100.481466,7.83906255 C100.58937,8.24872827 100.642976,8.68334825 100.642455,9.1425759 C100.641761,9.48379071 100.624066,9.79866492 100.589717,10.0871985 C100.555021,10.3755588 100.503151,10.6935523 100.434106,11.0410057 L98.4774251,11.0377131 L98.4788129,10.2279128 C98.4803742,9.35295416 98.3849602,8.69825149 98.1930914,8.26345822 C98.0012225,7.82901153 97.7189706,7.61135495 97.3463356,7.61066178 C97.1227199,7.61031519 96.9270345,7.65346526 96.7591059,7.7399387 C96.5911773,7.82675872 96.4513524,7.97353827 96.3391109,8.18149041 C96.2270428,8.38909597 96.1409967,8.6635928 96.0816666,9.00480761 C96.0219895,9.34584912 95.991804,9.77111126 95.9909366,10.2797275 L95.9791399,17.5398567 C95.9782725,18.0363425 96.0008249,18.4489542 96.0469706,18.7778652 C96.0929428,19.1069494 96.1684066,19.3707021 96.2738824,19.5694697 C96.3791847,19.7682373 96.5171013,19.9096447 96.6878056,19.9935187 C96.8585099,20.0777394 97.0649511,20.1198497 97.3073026,20.1201963 C97.4623937,20.1203696 97.6115865,20.0850177 97.7547075,20.0137941 C97.8974815,19.9429171 98.0237749,19.8313161 98.1327203,19.6793377 C98.2414923,19.5275327 98.3287527,19.3355235 98.3946751,19.1026171 C98.4600771,18.8702306 98.4930383,18.5957338 98.4937322,18.2791266 L98.4961609,16.7248576 L100.704561,16.7284968 L100.701959,18.199065 C100.700051,19.4774508 100.406349,20.4201672 99.8215479,21.0272142 C99.2365734,21.6344344 98.3974508,21.9399508 97.30418,21.9446297 Z M102.432248,5.91550523 L104.845528,5.91949098 L104.834252,12.863013 L104.908675,12.8631863 L107.678109,5.9241699 L110.082195,5.92815565 L106.995118,13.3785611 L110.401051,21.8262703 L107.820016,21.8221113 L104.906419,14.2500538 L104.831823,14.2498805 L104.819679,21.8170857 L102.4064,21.8132733 L102.432248,5.91550523 Z M114.860354,18.6130631 C114.860874,18.2718483 114.881518,17.9568008 114.922459,17.6684405 C114.963054,17.3799069 115.024119,17.068152 115.105654,16.7331757 L116.978544,16.736295 L116.977156,17.5088372 C116.976462,17.9370453 117.002137,18.3156915 117.054355,18.6446025 C117.106746,18.9736868 117.193312,19.2513029 117.313881,19.478144 C117.43497,19.7048119 117.595959,19.8755059 117.797543,19.9905728 C117.9993,20.1058129 118.246162,20.1636929 118.538302,20.1640395 C118.997851,20.164906 119.349148,20.0397881 119.591673,19.7886859 C119.834545,19.5381036 119.956154,19.1705481 119.957022,18.6865395 C119.957195,18.4383833 119.940715,18.2103291 119.906886,18.0022037 C119.873057,17.7942515 119.814248,17.5880323 119.730804,17.3830262 C119.647013,17.1781933 119.534251,16.962443 119.391824,16.7356018 C119.249223,16.5087607 119.066376,16.255579 118.84328,15.9760566 L116.332331,12.9841452 C115.885967,12.4127967 115.54213,11.8365959 115.300993,11.2558896 C115.059509,10.6753565 114.93946,10.0563523 114.940501,9.39853033 C114.941195,8.87119836 115.024466,8.38718974 115.189619,7.94685108 C115.355118,7.50651242 115.593133,7.12699975 115.904356,6.80779321 C116.215406,6.48875997 116.599664,6.24112362 117.056437,6.06505748 C117.513383,5.88899133 118.030527,5.80130484 118.608215,5.8023446 C119.310115,5.80355766 119.895436,5.90372127 120.364179,6.10318204 C120.832749,6.30246951 121.206771,6.56379603 121.485727,6.88681503 C121.764857,7.20983402 121.961236,7.57167075 122.075559,7.97197863 C122.189882,8.3724598 122.246784,8.77450061 122.24609,9.17775447 C122.245396,9.51896928 122.218507,9.83384349 122.165422,10.1223771 C122.11199,10.4107374 122.050925,10.7287309 121.98188,11.076011 L120.118358,11.0728917 L120.119746,10.3190652 C120.121134,9.47529933 120.000912,8.82804829 119.759428,8.3778319 C119.517944,7.92761551 119.123797,7.70198743 118.577162,7.70112096 C118.123685,7.7002545 117.785052,7.82554566 117.560916,8.07630129 C117.336954,8.3274035 117.224712,8.66393939 117.223845,9.08573565 C117.223498,9.30928421 117.240152,9.51099778 117.274154,9.69087639 C117.307982,9.87092829 117.357424,10.0369434 117.422306,10.1890951 C117.487361,10.3412467 117.566294,10.4887194 117.659279,10.6315133 C117.752265,10.7746536 117.857567,10.923686 117.97536,11.0787837 L120.774459,14.4715229 C121.282582,15.1364498 121.672912,15.774343 121.945276,16.3858956 C122.217639,16.9977948 122.353301,17.6448726 122.352086,18.3273022 C122.351219,18.8920656 122.26205,19.4008551 122.08406,19.8533243 C121.906416,20.3061401 121.652615,20.6903317 121.323003,21.006419 C120.993044,21.3223329 120.595081,21.5651171 120.129114,21.7352912 C119.6628,21.9049455 119.137676,21.9893394 118.553916,21.9886463 C117.833106,21.9874332 117.235468,21.8900423 116.760827,21.6969934 C116.285665,21.5041178 115.907305,21.2488565 115.625227,20.9319028 C115.342975,20.6151224 115.144861,20.2550186 115.030711,19.8512448 C114.916388,19.4476444 114.859486,19.0350327 114.860354,18.6130631 Z M124.213006,5.95120368 L126.626286,5.95501613 L126.615357,12.6100046 L129.476041,12.6148568 L129.486797,5.95969506 L131.900077,5.96368081 L131.874229,21.8612756 L129.460949,21.8574631 L129.472745,14.5136332 L126.612234,14.508781 L126.600437,21.8526109 L124.186984,21.8487985 L124.213006,5.95120368 Z M137.944466,22.0106545 C137.689624,22.0104812 137.413271,21.989686 137.115406,21.9489621 C136.817194,21.9080648 136.522278,21.8222846 136.230484,21.6916213 C135.938691,21.5607847 135.658,21.375534 135.388239,21.1363891 C135.118478,20.8970708 134.879769,20.5816767 134.672461,20.1903801 C134.464805,19.7992568 134.299305,19.3162879 134.176134,18.74234 C134.052617,18.1682188 133.991899,17.483883 133.993113,16.6895058 L134.002307,11.058335 C134.003522,10.2578926 134.068403,9.57390331 134.196605,9.00636725 C134.32498,8.4386579 134.494991,7.96123444 134.70681,7.57392357 C134.918629,7.18626612 135.159939,6.87797706 135.430395,6.64888312 C135.701023,6.41978917 135.983969,6.24476279 136.279232,6.12449713 C136.574495,6.00371159 136.868023,5.92520966 137.160163,5.88829815 C137.45213,5.85155994 137.722412,5.83353742 137.970835,5.83388401 C138.206942,5.83440389 138.469243,5.85173324 138.758435,5.88656522 C139.046758,5.92105062 139.335949,5.99574009 139.624273,6.11115353 C139.913117,6.22639368 140.193808,6.39760761 140.466865,6.62427545 C140.739576,6.85146316 140.981407,7.15888575 141.192185,7.54723638 C141.402616,7.93524042 141.571065,8.41647634 141.697706,8.99059755 C141.823826,9.56471876 141.886625,10.2584124 141.885238,11.0711587 L141.87587,16.7025028 C141.874655,17.4904681 141.808386,18.1682188 141.677062,18.7359282 C141.545564,19.3032909 141.373992,19.784007 141.162173,20.1775564 C140.950181,20.5714524 140.705921,20.8875397 140.42922,21.1258182 C140.152346,21.3644433 139.869574,21.5500405 139.580209,21.6829566 C139.291365,21.8158727 139.003735,21.9037325 138.718014,21.9468825 C138.432119,21.989686 138.174154,22.0110011 137.944466,22.0106545 Z M137.947589,20.1957522 C138.183522,20.1962721 138.389963,20.1562413 138.567433,20.0756598 C138.744383,19.995425 138.890626,19.856097 139.005817,19.6575027 C139.121181,19.4594283 139.208442,19.1972353 139.267945,18.8714436 C139.327796,18.5459985 139.357808,18.1349465 139.358502,17.6384607 L139.370472,10.4064051 C139.371339,9.89761548 139.342542,9.47252664 139.283905,9.13096524 C139.225616,8.78957714 139.13905,8.51490702 139.024379,8.30678158 C138.909883,8.09865614 138.764159,7.95135671 138.587383,7.86401681 C138.41026,7.7770235 138.203819,7.73318025 137.967886,7.73266037 C137.725535,7.73231378 137.514236,7.77546385 137.33399,7.86193729 C137.153745,7.94858401 137.004205,8.09571016 136.886065,8.30348901 C136.767578,8.51109456 136.678757,8.78559139 136.618906,9.12663291 C136.559576,9.46784771 136.52939,9.89293655 136.528523,10.4015528 L136.516726,17.6337818 C136.516032,18.1302675 136.54483,18.5414929 136.603119,18.8671113 C136.661756,19.1932496 136.74971,19.4554426 136.867503,19.6542102 C136.985122,19.8529778 137.133968,19.9928256 137.31404,20.0737536 C137.493939,20.1546817 137.705238,20.1954056 137.947589,20.1957522 Z M143.98556,5.98326297 L149.883705,5.9929674 L149.880583,7.89174376 L146.395717,7.88602508 L146.388084,12.6422372 L149.08084,12.6465695 L149.077717,14.5453459 L146.384788,14.5410135 L146.376114,19.9860671 L149.954138,19.9919591 L149.951016,21.8907355 L143.959711,21.8808577 L143.98556,5.98326297 Z" id="Fill-1" sketch:type="MSShapeGroup"></path>
            </g>
        </g>
    </g>
</svg>