<?xml version="1.0" encoding="UTF-8" standalone="no"?>
<svg width="170px" height="34px" viewBox="0 0 170 34" version="1.1" xmlns="http://www.w3.org/2000/svg" xmlns:xlink="http://www.w3.org/1999/xlink" xmlns:sketch="http://www.bohemiancoding.com/sketch/ns">
    <!-- Generator: Sketch 3.3.1 (12002) - http://www.bohemiancoding.com/sketch -->
    <title>logo_home_1440</title>
    <desc>Created with Sketch.</desc>
    <defs></defs>
    <g id="Home" stroke="none" stroke-width="1" fill="none" fill-rule="evenodd" sketch:type="MSPage">
        <g id="DEsktop-1440" sketch:type="MSArtboardGroup" transform="translate(-38.000000, -34.000000)" fill="#262626">
            <g id="header_1440" sketch:type="MSLayerGroup" transform="translate(37.000000, 15.000000)">
                <g id="logo_home_1440" transform="translate(1.000000, 19.000000)" sketch:type="MSShapeGroup">
                    <path d="M28.0417387,27.4369293 L26.6640879,24.3931338 C26.4641349,23.9512355 26.0237271,23.6668494 25.5382954,23.6660638 L10.5363138,23.6417103 C10.0819466,23.6409247 9.66375581,23.8889769 9.44669767,24.2876674 L7.75093091,27.4037378 L1.33926136,27.3933287 C0.669605523,27.3921503 0.120668619,27.9230175 0.100024502,28.5915605 L0.0998278914,28.5968633 L0.0937329616,32.2801347 C0.0927499084,32.9632113 0.646012246,33.5176464 1.32962744,33.5188248 L6.49852114,33.5272699 C6.95288832,33.5278591 7.37107915,33.2800033 7.5881373,32.8811164 L9.22157849,29.8791539 L26.442901,29.907239 L27.7688431,32.8367302 C27.9689927,33.2786285 28.409204,33.5628182 28.8946356,33.5638002 L33.9620782,33.572049 C34.64589,33.573031 35.2009219,33.0203635 35.2021015,32.3374833 L35.2079999,28.6850465 C35.2091795,28.0021663 34.6557206,27.4477313 33.9721054,27.4465529 L28.0417387,27.4369293 L28.0417387,27.4369293 Z M5.76516345,31.0530322 L2.63433564,31.0479259 L2.62745427,29.868352 L6.40631075,29.8746368 L5.76516345,31.0530322 L5.76516345,31.0530322 Z M10.5661986,27.4084514 L11.2696715,26.115948 L24.7369105,26.1377483 L25.3228102,27.4324121 L10.5661986,27.4084514 L10.5661986,27.4084514 Z M32.7252007,31.0968293 L29.6960206,31.0919193 L29.1620261,29.9117562 L32.7397499,29.9174518 L32.7252007,31.0968293 Z M19.5131624,1.38103408 L19.5064776,6.62587596 L15.8866791,6.61998398 C15.8892351,5.56099924 15.8955266,2.94064049 15.8992622,1.3749457 C15.9008351,0.691672723 15.3473762,0.13723765 14.6633678,0.136255654 L1.41318696,0.114651737 C0.729571768,0.113473341 0.174343324,0.666140821 0.17336027,1.349021 L0.135021196,24.8631172 C0.133841532,25.5459974 0.68710387,26.1006288 1.37071906,26.1018072 C2.05433425,26.1027892 2.6095627,25.5501218 2.61074236,24.8672416 L2.64731194,2.39327579 L13.4211817,2.41075533 L13.410958,6.61605599 L11.8186084,6.6133064 C11.4945941,6.24152263 11.0016912,6.02018068 10.4578662,6.07379767 C9.72195256,6.1464654 9.12071723,6.73782353 9.03873059,7.47196391 C8.93157779,8.43019583 9.67850161,9.24211032 10.616531,9.24368151 C11.0996033,9.24446711 11.5319501,9.02940994 11.8241135,8.69022844 L13.4060427,8.69278163 L13.395819,12.8611592 L11.8604865,12.858606 C11.5248721,12.4310449 10.9759352,12.1784755 10.3723406,12.2654803 C9.66808125,12.3672151 9.10813415,12.9471821 9.02870345,13.6536302 C8.92096082,14.6120585 9.66827786,15.4247586 10.6063072,15.4263298 C11.0591015,15.426919 11.466872,15.2379829 11.7570693,14.9353317 L13.3907071,14.9378849 L13.3820562,18.4740533 L7.72360203,18.4648225 C7.03998684,18.4636441 6.484955,19.016508 6.48377534,19.6993882 C6.48259568,20.3822684 7.03605462,20.9367035 7.71966982,20.9378818 L14.6150015,20.9490766 C15.2982235,20.950255 15.8530587,20.3981767 15.8548282,19.7154929 C15.8548282,19.7154929 15.8595469,17.7018115 15.8664283,14.9420093 L19.4962539,14.9479012 L19.4905522,19.7209921 C19.4895691,20.4038723 20.0428314,20.9579146 20.72625,20.959093 L27.6284631,20.9702877 C28.3120783,20.9714661 28.8673068,20.4187986 28.8682898,19.7359185 C28.8694695,19.0528419 28.3160105,18.4984068 27.6323953,18.4974248 L21.9678462,18.4879976 L21.971975,14.9518292 L24.311445,14.9557572 C24.6405712,15.3012235 25.1226605,15.5001759 25.6505601,15.4396849 C26.3758567,15.3566081 26.9625429,14.7687851 27.0435465,14.0440719 C27.1505027,13.0862328 26.4035788,12.2741219 25.4657461,12.2727471 C24.9580974,12.2717651 24.5066794,12.5094082 24.2149092,12.8788352 L21.974531,12.8751036 L21.9796428,8.70672597 L24.2648483,8.71045756 C24.5652694,9.06161941 25.0155077,9.28099737 25.5176513,9.26724942 C26.3414499,9.24485991 27.027621,8.5702285 27.0624211,7.74751205 C27.1005636,6.83995114 26.3760533,6.09147361 25.4757732,6.09009881 C24.9976162,6.08931321 24.5693982,6.3004424 24.2772348,6.63373193 L21.9820022,6.63000034 L21.9871141,2.42469967 L32.7462381,2.44217921 L32.7094719,24.918109 C32.7082922,25.6011856 33.2615545,26.1556206 33.9453663,26.156799 C34.6289815,26.157781 35.1840134,25.6051135 35.185193,24.9222334 L35.2235321,1.40617318 C35.2247118,0.723293002 34.6714494,0.168857929 33.9878342,0.167679533 L20.7529891,0.146075616 C20.0691773,0.144897221 19.5139488,0.697957499 19.5131624,1.38103408 Z M15.8715401,12.8650872 C15.8746859,11.5260372 15.8782249,10.1005714 15.8815673,8.69670961 L19.5039217,8.70279799 L19.4988098,12.8711756 L15.8715401,12.8650872 Z M45.7856522,8.74168504 L42.8817131,8.73697146 L42.8852521,6.58502491 L51.4179572,6.59877286 L51.4142216,8.7507194 L48.5207028,8.74620222 L48.4949468,24.6115298 L45.7598962,24.607209 L45.7856522,8.74168504 Z M53.0496289,6.60152245 L55.7846795,6.60623603 L55.7724896,14.1485563 L59.0144025,14.1536627 L59.0267889,6.61134241 L61.7618395,6.6156632 L61.7323479,24.6331337 L58.9972973,24.6286165 L59.0108635,16.3056092 L55.768754,16.3005028 L55.7553845,24.6235101 L53.0203339,24.6187965 L53.0496289,6.60152245 Z M64.6500498,6.62057318 L71.3346149,6.63137514 L71.3310759,8.78332168 L67.3815614,8.7768405 L67.3729106,14.1674106 L70.4247009,14.1723206 L70.4211619,16.3242671 L67.369175,16.3193572 L67.3591478,22.4902215 L71.4142422,22.4970955 L71.4108999,24.649042 L64.6207548,24.6378473 L64.6500498,6.62057318 Z M77.607674,6.6415879 L80.3745755,6.64610508 C80.7827392,6.64669428 81.2050588,6.66181702 81.6415345,6.69029491 C82.0780101,6.719362 82.5038687,6.77985297 82.9191104,6.87176781 C83.3341555,6.96407546 83.7281632,7.09998374 84.1011336,7.27968905 C84.4739073,7.45978716 84.7992979,7.70135823 85.0767156,8.00400947 C85.3545264,8.30705351 85.5757134,8.68178327 85.7404731,9.12859155 C85.9050362,9.57559624 85.9868262,10.1117662 85.9858431,10.7376906 L85.9844669,11.6132384 C85.9836804,12.0914706 85.9142769,12.5310121 85.7762562,12.9314702 C85.6382355,13.3321246 85.4563707,13.6852505 85.2306617,13.9906513 C85.0047561,14.2964449 84.7475893,14.5492108 84.4585717,14.7487524 C84.1693575,14.9490796 83.8734584,15.0840059 83.5708747,15.1537276 L83.5708747,15.2381793 C84.4642734,15.4013871 85.1380581,15.8260023 85.5908524,16.512614 C86.0440399,17.198833 86.2695523,18.0767376 86.2677828,19.1455423 L86.2662099,20.063316 C86.2652269,20.7173255 86.1920877,21.2851157 86.0467924,21.7666867 C85.9018904,22.2480612 85.6987916,22.6591248 85.4378893,22.9996811 C85.1767904,23.3406302 84.8663422,23.6197136 84.5071345,23.8369311 C84.1477303,24.0543451 83.7529361,24.2242304 83.3235385,24.3465872 C82.8937476,24.4689439 82.4360381,24.5524136 81.9502132,24.597389 C81.4645849,24.6425608 80.964604,24.6645576 80.4506638,24.6635756 L77.578379,24.658862 L77.607674,6.6415879 Z M81.0452144,22.7657696 C81.4111068,22.7665552 81.7439686,22.719223 82.0434066,22.6251478 C82.3428446,22.5304833 82.5998147,22.3831839 82.8149068,22.1832495 C83.0299988,21.9831186 83.1957416,21.7287816 83.3125283,21.4192564 C83.4291184,21.110124 83.487905,20.7444286 83.4884948,20.3223666 L83.4906575,18.9194868 C83.491444,18.4974248 83.4497625,18.1228914 83.3660064,17.7958867 C83.2820536,17.4684892 83.1434431,17.1941194 82.9499783,16.9725811 C82.7569066,16.7504535 82.5054416,16.5813538 82.1957799,16.464889 C81.8861181,16.3480315 81.5060697,16.2895045 81.0556348,16.2887189 L80.2743041,16.2875405 L80.2636871,22.7645912 L81.0452144,22.7657696 L81.0452144,22.7657696 Z M80.8053494,14.3579179 C81.1714384,14.3585071 81.5060697,14.3151029 81.8088501,14.2279016 C82.1116305,14.1403075 82.3705667,14.0036137 82.5858554,13.8174272 C82.8007508,13.6316335 82.9664936,13.3894732 83.0830837,13.09075 C83.200067,12.7920267 83.258657,12.4316341 83.2592468,12.0095721 L83.2602299,11.2711109 C83.2610163,10.8492454 83.2195315,10.4764796 83.1355787,10.1528136 C83.051626,9.82934407 82.9130155,9.55477792 82.7197472,9.32931158 C82.526479,9.10404165 82.2732444,8.9331743 81.9602403,8.81631675 C81.6470396,8.7000484 81.2652217,8.64132502 80.8147867,8.64053943 L80.2866906,8.63975383 L80.2774499,14.3571323 L80.8053494,14.3579179 Z M88.4479982,6.65926383 L91.1830488,6.66378101 L91.1572928,22.5291085 L94.8848339,22.5351969 L94.8814915,24.6871435 L88.4187032,24.6765379 L88.4479982,6.65926383 Z M98.4118321,6.67556497 L101.558782,6.68067135 L104.866363,24.7034446 L102.099658,24.6989274 L101.608525,21.4701238 L98.3137234,21.464821 L97.8334036,24.6920534 L95.0560818,24.6873399 L98.4118321,6.67556497 Z M101.294931,19.4126453 L100.042521,10.4336645 L99.9263239,10.4334681 L98.6338056,19.4083245 L101.294931,19.4126453 Z M110.278071,24.8705804 C109.996524,24.8699912 109.692171,24.8468161 109.364814,24.8004658 C109.037654,24.7541156 108.710297,24.6570944 108.383334,24.5088129 C108.055977,24.3605315 107.74317,24.1507771 107.444322,23.8795498 C107.14567,23.6083224 106.882212,23.2508758 106.65434,22.8076027 C106.426075,22.3641332 106.243817,21.8171613 106.107959,21.1662942 C105.971315,20.5156235 105.904074,19.7404356 105.90545,18.8399451 L105.916067,12.4579516 C105.917443,11.5507835 105.98901,10.7753992 106.130962,10.1323881 C106.272719,9.48898417 106.460285,8.94770785 106.693269,8.50875553 C106.926252,8.06960682 107.194429,7.72001616 107.497603,7.46037635 C107.80058,7.20093295 108.114174,7.00237331 108.438385,6.86607223 C108.762399,6.72918196 109.084644,6.6400167 109.405316,6.59838006 C109.725595,6.55693982 110.02287,6.5361215 110.297535,6.5367107 C111.015557,6.53788909 111.615613,6.63903471 112.097505,6.84014753 C112.579398,7.04145676 112.966328,7.31641571 113.257901,7.66482797 C113.549475,8.01363303 113.756506,8.41998307 113.878994,8.88427089 C114.001286,9.34855871 114.062039,9.84112802 114.061449,10.361586 C114.060663,10.7482961 114.040608,11.1051536 114.00168,11.4321583 C113.962357,11.7589667 113.903571,12.1193593 113.82532,12.5131398 L111.607748,12.5094082 L111.609321,11.5916345 C111.611091,10.6000147 111.502955,9.85801836 111.285504,9.36525265 C111.068052,8.87287974 110.748167,8.62620228 110.325847,8.62541669 C110.072416,8.62502389 109.850639,8.6739273 109.66032,8.77193052 C109.470001,8.87032655 109.311533,9.03667671 109.184326,9.2723558 C109.057315,9.5076421 108.959796,9.81873851 108.892555,10.2054486 C108.824921,10.5919623 108.790711,11.0739261 108.789728,11.6503579 L108.776359,19.8785043 C108.775376,20.4411882 108.800935,20.9088148 108.853233,21.2815805 C108.905335,21.6545427 108.990861,21.9534624 109.1104,22.1787323 C109.229743,22.4040022 109.386048,22.564264 109.579513,22.6593212 C109.772978,22.7547713 110.006945,22.8024963 110.28161,22.8028891 C110.45738,22.8030855 110.626465,22.76302 110.788668,22.6823 C110.950479,22.6019727 111.093612,22.4754915 111.217083,22.3032494 C111.340358,22.1312037 111.439253,21.9135933 111.513965,21.6496327 C111.588087,21.3862613 111.625443,21.0751649 111.62623,20.7163435 L111.628982,18.9548387 L114.131836,18.958963 L114.128887,20.625607 C114.126724,22.0744443 113.793862,23.1428562 113.131088,23.8308428 C112.468117,24.5190257 111.517111,24.8652776 110.278071,24.8705804 Z M116.089881,6.70423926 L118.824932,6.70875644 L118.812152,14.5780814 L118.896498,14.5782778 L122.03519,6.71405922 L124.75982,6.7185764 L121.261134,15.1623692 L125.121191,24.7364397 L122.196018,24.7317261 L118.893942,16.150061 L118.809399,16.1498646 L118.795637,24.7260305 L116.060586,24.7217097 L116.089881,6.70423926 Z M130.175067,21.0948048 C130.175657,20.7080947 130.199054,20.3510409 130.245454,20.0242326 C130.291461,19.6972278 130.360668,19.3439056 130.453075,18.9642658 L132.575683,18.967801 L132.57411,19.8433488 C132.573324,20.3286514 132.602422,20.7577837 132.661602,21.1305495 C132.720978,21.5035117 132.819087,21.8181433 132.955732,22.0752299 C133.092966,22.3321201 133.27542,22.5255734 133.503882,22.6559825 C133.73254,22.786588 134.012317,22.8521853 134.343409,22.8525781 C134.864231,22.8535601 135.262368,22.7117598 135.537229,22.4271773 C135.812484,22.143184 135.950308,21.7266212 135.951291,21.1780781 C135.951488,20.8968344 135.93281,20.638373 135.894471,20.4024975 C135.856132,20.1668184 135.789481,19.9331033 135.694911,19.700763 C135.599948,19.4686191 135.472151,19.224102 135.310734,18.9670154 C135.14912,18.7099288 134.941892,18.4229895 134.689051,18.1061975 L131.843309,14.7153645 C131.337429,14.0678362 130.947747,13.4148087 130.674458,12.7566748 C130.400776,12.0987374 130.264722,11.3971993 130.265901,10.6516677 C130.266688,10.0540248 130.361061,9.50548171 130.548234,9.00643122 C130.735801,8.50738074 131.005551,8.07726639 131.35827,7.71549898 C131.710793,7.35392796 132.146286,7.07327344 132.663961,6.87373181 C133.181834,6.67419017 133.76793,6.57481215 134.422644,6.57599055 C135.21813,6.57736534 135.881494,6.69088411 136.412736,6.91693964 C136.943782,7.14279877 137.367674,7.43896884 137.683824,7.80505703 C138.000171,8.17114523 138.222734,8.58122685 138.3523,9.03490911 C138.481867,9.48878777 138.546355,9.94443402 138.545569,10.4014551 C138.544782,10.7881652 138.514308,11.1450226 138.454145,11.4720274 C138.393589,11.7988357 138.324382,12.1592283 138.246131,12.5528124 L136.134139,12.5492772 L136.135712,11.6949405 C136.137285,10.7386726 136.001034,10.0051214 135.727352,9.49487615 C135.45367,8.98463091 135.00697,8.72891909 134.38745,8.72793709 C133.87351,8.7269551 133.489726,8.86895175 133.235705,9.15314146 C132.981881,9.43772397 132.854674,9.81913131 132.853691,10.2971671 C132.853297,10.5505221 132.872172,10.7791308 132.910708,10.9829932 C132.949047,11.1870521 133.005081,11.3752025 133.078613,11.5476411 C133.152342,11.7200796 133.2418,11.8872154 133.347183,12.0490484 C133.452567,12.2112741 133.571909,12.3801775 133.705408,12.5559548 L136.877721,16.4010593 C137.453593,17.1546432 137.895967,17.8775888 138.204646,18.5706817 C138.513325,19.2641675 138.667074,19.9975223 138.665698,20.7709425 C138.664715,21.4110076 138.563657,21.9876358 138.361934,22.5004343 C138.160605,23.0136255 137.872964,23.4490426 137.499403,23.8072748 C137.12545,24.1653107 136.674425,24.440466 136.146329,24.6333301 C135.61784,24.8256049 135.022699,24.9212514 134.361104,24.9204658 C133.544187,24.919091 132.866864,24.8087146 132.328937,24.5899258 C131.79042,24.3713335 131.361613,24.0820374 131.041924,23.7228232 C130.722038,23.3638053 130.497509,22.9556877 130.368139,22.4980775 C130.238573,22.0406636 130.174084,21.573037 130.175067,21.0948048 Z M140.77474,6.7446975 L143.509791,6.74901828 L143.497404,14.2913385 L146.739514,14.2968377 L146.751704,6.75432106 L149.486754,6.75883825 L149.457459,24.7761123 L146.722409,24.7717915 L146.735778,16.4487843 L143.493865,16.4432851 L143.480496,24.7662924 L140.745248,24.7619716 L140.77474,6.7446975 Z M156.337062,24.9454085 C156.048241,24.9452121 155.73504,24.9216442 155.39746,24.8754903 C155.059486,24.8291401 154.725248,24.7319225 154.394549,24.5838375 C154.06385,24.435556 153.745734,24.2256052 153.440004,23.9545743 C153.134275,23.6833469 152.863738,23.3259003 152.628789,22.8824308 C152.393446,22.4391577 152.205879,21.891793 152.066286,21.2413187 C151.926299,20.590648 151.857485,19.8150674 151.858861,18.9147732 L151.869282,12.5327797 C151.870658,11.6256116 151.94419,10.8504237 152.089486,10.2072162 C152.234978,9.56381229 152.427656,9.02273236 152.667718,8.58378004 C152.907779,8.14443493 153.181265,7.79504067 153.487781,7.53540087 C153.794493,7.27576106 154.115165,7.07739782 154.449796,6.94109675 C154.784428,6.80420647 155.117093,6.71523761 155.448185,6.67340457 C155.779081,6.63176793 156.0854,6.61134241 156.366947,6.61173521 C156.634534,6.61232441 156.931809,6.63196433 157.259559,6.67144058 C157.586326,6.71052403 157.914076,6.79517211 158.240843,6.92597401 C158.5682,7.0565795 158.886316,7.25062196 159.195781,7.50751217 C159.504853,7.76499159 159.778928,8.11340385 160.01781,8.55353456 C160.256298,8.99327247 160.447207,9.53867318 160.590733,10.1893439 C160.733669,10.8400146 160.804842,11.6262008 160.803269,12.5473132 L160.792652,18.9295032 C160.791276,19.8225305 160.716171,20.590648 160.567336,21.2340519 C160.418306,21.877063 160.223858,22.4218746 159.983796,22.8678972 C159.743538,23.3143127 159.46671,23.672545 159.153116,23.9425939 C158.839326,24.2130357 158.51885,24.4233793 158.190904,24.5740175 C157.863547,24.7246557 157.537567,24.8242301 157.213749,24.8731336 C156.889734,24.9216442 156.597374,24.9458013 156.337062,24.9454085 Z M156.340601,22.8885192 C156.607991,22.8891084 156.841958,22.8437401 157.043091,22.7524145 C157.243634,22.6614816 157.409376,22.5035766 157.539926,22.2785031 C157.670672,22.0540188 157.769567,21.7568667 157.837005,21.3876361 C157.904835,21.0187983 157.938849,20.5529393 157.939635,19.9902555 L157.953201,11.7939257 C157.954184,11.2172975 157.921547,10.7355302 157.855093,10.3484273 C157.789032,9.96152076 157.690923,9.65022795 157.560963,9.41435246 C157.4312,9.17847696 157.266047,9.0115376 157.065701,8.91255238 C156.864962,8.81395996 156.630995,8.76427095 156.363604,8.76368175 C156.088939,8.76328896 155.849468,8.81219237 155.645189,8.91019559 C155.440911,9.00839522 155.271432,9.17513818 155.13754,9.41062087 C155.003255,9.64590717 154.902591,9.95700358 154.83476,10.3435173 C154.767519,10.7302274 154.733309,11.2119948 154.732326,11.7884266 L154.718956,19.9849527 C154.71817,20.5476365 154.750807,21.013692 154.816869,21.3827261 C154.883323,21.7523495 154.983005,22.0495016 155.116503,22.2747715 C155.249805,22.5000415 155.418497,22.6585356 155.622579,22.7502541 C155.826464,22.8419725 156.065936,22.8881264 156.340601,22.8885192 Z M163.183634,6.78103136 L169.868199,6.79202972 L169.86466,8.94397626 L165.915146,8.93749509 L165.906495,14.3278688 L168.958285,14.3327788 L168.954746,16.4847253 L165.902759,16.4798154 L165.892929,22.6508761 L169.948023,22.6575537 L169.944484,24.8095002 L163.154339,24.7983054 L163.183634,6.78103136 Z" id="Fill-1"></path>
                </g>
            </g>
        </g>
    </g>
</svg>